<svg width="41" height="41" viewBox="0 0 41 41" fill="none" xmlns="http://www.w3.org/2000/svg">
<mask id="mask0_7_31" style="mask-type:alpha" maskUnits="userSpaceOnUse" x="7" y="1" width="28" height="19">
<path d="M7 1H34.625V19.897H7V1Z" fill="white"/>
</mask>
<g mask="url(#mask0_7_31)">
<path d="M33.675 1.45399C33.161 0.903993 32.471 0.849993 31.873 1.31099C30.904 2.06099 27.954 4.34399 23.39 2.86099C19.705 1.66199 16.825 1.40399 14.583 2.06999C12.458 2.69999 10.926 4.19099 10.026 6.50399C7.76001 8.03599 6.73601 10.485 7.05801 13.6C7.31101 16.028 8.32801 18.362 9.12101 19.623C9.20398 19.7548 9.33588 19.8484 9.48774 19.883C9.63961 19.9177 9.79903 19.8907 9.93101 19.808C10.0145 19.7548 10.0833 19.6813 10.1308 19.5944C10.1784 19.5075 10.2032 19.41 10.203 19.311H29.075C29.0761 19.4374 29.118 19.5601 29.1944 19.6608C29.2708 19.7615 29.3777 19.8349 29.4992 19.8699C29.6207 19.905 29.7502 19.8999 29.8686 19.8554C29.9869 19.8109 30.0877 19.7294 30.156 19.623C31.002 18.281 32.184 15.03 32.238 11.901C33.993 9.82399 34.458 7.34899 34.578 6.03599C34.761 4.03599 34.406 2.23799 33.675 1.45399" fill="#3D5868"/>
<mask id="mask1_7_31" style="mask-type:alpha" maskUnits="userSpaceOnUse" x="27" y="1" width="8" height="19">
<path d="M27.735 1H34.625V19.897H27.736L27.735 1Z" fill="white"/>
</mask>
<g mask="url(#mask1_7_31)">
<path d="M33.675 1.45399C33.161 0.903993 32.471 0.849993 31.873 1.31099C31.726 1.42599 31.531 1.57599 31.293 1.74299C31.871 2.62899 32.136 4.25299 31.973 6.03599C31.853 7.34899 31.388 9.82399 29.633 11.901C29.583 14.811 28.558 17.823 27.735 19.311H29.075C29.0761 19.4374 29.1179 19.5601 29.1944 19.6608C29.2708 19.7615 29.3777 19.8349 29.4992 19.8699C29.6207 19.905 29.7502 19.8999 29.8685 19.8554C29.9869 19.8109 30.0877 19.7294 30.156 19.623C31.002 18.281 32.186 15.03 32.238 11.901C33.993 9.82399 34.458 7.34899 34.578 6.03599C34.761 4.03599 34.406 2.23799 33.675 1.45399" fill="#2A434F"/>
</g>
</g>
<mask id="mask2_7_31" style="mask-type:alpha" maskUnits="userSpaceOnUse" x="7" y="1" width="28" height="40">
<path d="M7 41H34.626V1H7V41Z" fill="white"/>
</mask>
<g mask="url(#mask2_7_31)">
<path d="M16.564 41H23.141V29.394H16.564V41Z" fill="#49B6F2"/>
</g>
<mask id="mask3_7_31" style="mask-type:alpha" maskUnits="userSpaceOnUse" x="7" y="1" width="28" height="40">
<path d="M7 41H34.626V1H7V41Z" fill="white"/>
</mask>
<g mask="url(#mask3_7_31)">
<path d="M19.852 29.976V32.853L23.142 35.141V29.395L19.852 29.976V29.976ZM16.563 35.14L19.852 32.853V29.976L16.563 29.395V35.14Z" fill="#68C8FC"/>
</g>
<mask id="mask4_7_31" style="mask-type:alpha" maskUnits="userSpaceOnUse" x="7" y="1" width="28" height="40">
<path d="M7 41H34.626V1H7V41Z" fill="white"/>
</mask>
<g mask="url(#mask4_7_31)">
<path d="M26.547 35.629C26.3916 35.6287 26.2427 35.5669 26.1329 35.4571C26.0231 35.3472 25.9612 35.1983 25.961 35.043V32.218C25.9597 30.649 25.3359 29.1447 24.2265 28.0352C23.1172 26.9256 21.613 26.3016 20.044 26.3C18.4749 26.3016 16.9706 26.9256 15.8611 28.0351C14.7516 29.1446 14.1276 30.6489 14.126 32.218V34.65C14.126 34.8054 14.0642 34.9545 13.9543 35.0644C13.8444 35.1743 13.6954 35.236 13.54 35.236C13.3846 35.236 13.2355 35.1743 13.1256 35.0644C13.0157 34.9545 12.954 34.8054 12.954 34.65V32.218C12.954 28.309 16.135 25.128 20.044 25.128C23.954 25.128 27.134 28.309 27.134 32.218V35.043C27.134 35.12 27.1188 35.1963 27.0893 35.2675C27.0598 35.3387 27.0165 35.4033 26.962 35.4577C26.9075 35.5122 26.8428 35.5553 26.7715 35.5847C26.7003 35.6141 26.624 35.6291 26.547 35.629Z" fill="#19303F"/>
<mask id="mask5_7_31" style="mask-type:alpha" maskUnits="userSpaceOnUse" x="7" y="1" width="28" height="40">
<path d="M7 41H34.626V1H7V41Z" fill="white"/>
</mask>
<g mask="url(#mask5_7_31)">
<path d="M16.563 21.917V29C16.5842 29.8583 16.94 30.6742 17.5545 31.2738C18.169 31.8733 18.9935 32.2089 19.852 32.2089C20.7105 32.2089 21.535 31.8733 22.1495 31.2738C22.764 30.6742 23.1198 29.8583 23.141 29V21.917H16.563ZM9.68299 18.5H13.54V22.922H9.68299C9.39263 22.922 9.10512 22.8648 8.83687 22.7537C8.56862 22.6426 8.32488 22.4797 8.11957 22.2744C7.91426 22.0691 7.7514 21.8254 7.64029 21.5571C7.52917 21.2889 7.47198 21.0014 7.47198 20.711C7.47198 20.4206 7.52917 20.1331 7.64029 19.8649C7.7514 19.5966 7.91426 19.3529 8.11957 19.1476C8.32488 18.9423 8.56862 18.7794 8.83687 18.6683C9.10512 18.5572 9.39263 18.5 9.68299 18.5M30.021 18.5H26.164V22.922H30.021C30.3113 22.922 30.5988 22.8648 30.8671 22.7537C31.1353 22.6426 31.3791 22.4797 31.5844 22.2744C31.7897 22.0691 31.9526 21.8254 32.0637 21.5571C32.1748 21.2889 32.232 21.0014 32.232 20.711C32.232 20.4206 32.1748 20.1331 32.0637 19.8649C31.9526 19.5966 31.7897 19.3529 31.5844 19.1476C31.3791 18.9423 31.1353 18.7794 30.8671 18.6683C30.5988 18.5572 30.3113 18.5 30.021 18.5" fill="#FA9E3E"/>
</g>
<mask id="mask6_7_31" style="mask-type:alpha" maskUnits="userSpaceOnUse" x="7" y="1" width="28" height="40">
<path d="M7 41H34.626V1H7V41Z" fill="white"/>
</mask>
<g mask="url(#mask6_7_31)">
<path d="M28.61 13.98V18.927C28.61 23.768 24.723 27.765 19.882 27.781C18.7292 27.7849 17.5871 27.5613 16.5209 27.123C15.4548 26.6847 14.4856 26.0402 13.669 25.2266C12.8524 24.413 12.2045 23.4462 11.7622 22.3816C11.32 21.3171 11.0922 20.1757 11.092 19.023V15.6C11.092 15.53 11.135 15.468 11.199 15.44C13.318 14.471 14.025 11.96 14.212 10.163C14.252 9.774 14.267 9.42 14.268 9.122C14.268 8.96 14.467 8.885 14.574 9.005C14.821 9.282 15.204 9.69 15.707 10.163C18.022 12.337 22.852 15.841 28.376 13.813C28.4026 13.8035 28.431 13.8006 28.4589 13.8045C28.4869 13.8083 28.5135 13.8188 28.5365 13.8351C28.5596 13.8513 28.5783 13.8729 28.5913 13.898C28.6043 13.923 28.611 13.9508 28.611 13.979" fill="#FFB56B"/>
</g>
<mask id="mask7_7_31" style="mask-type:alpha" maskUnits="userSpaceOnUse" x="7" y="1" width="28" height="40">
<path d="M7 41H34.626V1H7V41Z" fill="white"/>
</mask>
<g mask="url(#mask7_7_31)">
<path d="M19.852 23.538C19.3323 23.5377 18.8203 23.4115 18.36 23.1701C17.8997 22.9287 17.5048 22.5794 17.209 22.152C17.1262 22.0242 17.0965 21.8692 17.126 21.7198C17.1555 21.5704 17.242 21.4384 17.3672 21.3517C17.4924 21.265 17.6464 21.2305 17.7966 21.2553C17.9468 21.2802 18.0815 21.3626 18.172 21.485C18.36 21.7566 18.611 21.9787 18.9036 22.132C19.1962 22.2854 19.5217 22.3655 19.852 22.3655C20.1824 22.3655 20.5078 22.2854 20.8004 22.132C21.093 21.9787 21.344 21.7566 21.532 21.485C21.6205 21.3572 21.7561 21.2697 21.909 21.2418C22.0619 21.214 22.2197 21.248 22.3475 21.3365C22.4753 21.4249 22.5628 21.5606 22.5906 21.7135C22.6185 21.8664 22.5845 22.0242 22.496 22.152C22.2 22.5794 21.8049 22.9288 21.3444 23.1701C20.884 23.4115 20.3719 23.5377 19.852 23.538" fill="#19303F"/>
</g>
<mask id="mask8_7_31" style="mask-type:alpha" maskUnits="userSpaceOnUse" x="7" y="1" width="28" height="40">
<path d="M7 41H34.626V1H7V41Z" fill="white"/>
</mask>
<g mask="url(#mask8_7_31)">
<path d="M26.788 19.934C26.788 24.096 23.538 27.534 19.383 27.768C19.46 27.773 19.538 27.776 19.615 27.778H19.617C19.916 27.785 20.215 27.778 20.513 27.756L20.546 27.753C20.68 27.743 20.811 27.73 20.943 27.713C25.266 27.176 28.611 23.49 28.611 19.023V13.726C27.994 13.969 27.386 14.142 26.788 14.255V19.934V19.934Z" fill="#EF9245"/>
</g>
<mask id="mask9_7_31" style="mask-type:alpha" maskUnits="userSpaceOnUse" x="7" y="1" width="28" height="40">
<path d="M7 41H34.626V1H7V41Z" fill="white"/>
</mask>
<g mask="url(#mask9_7_31)">
<path d="M24.096 19.2C23.9406 19.2 23.7915 19.1383 23.6816 19.0284C23.5717 18.9185 23.51 18.7694 23.51 18.614V18.458C23.51 18.3026 23.5717 18.1535 23.6816 18.0436C23.7915 17.9337 23.9406 17.872 24.096 17.872C24.2514 17.872 24.4004 17.9337 24.5103 18.0436C24.6202 18.1535 24.682 18.3026 24.682 18.458V18.614C24.682 18.7694 24.6202 18.9185 24.5103 19.0284C24.4004 19.1383 24.2514 19.2 24.096 19.2M15.608 19.2C15.4526 19.2 15.3035 19.1383 15.1936 19.0284C15.0837 18.9185 15.022 18.7694 15.022 18.614V18.458C15.0307 18.3085 15.0963 18.168 15.2052 18.0652C15.3141 17.9625 15.4582 17.9052 15.608 17.9052C15.7577 17.9052 15.9018 17.9625 16.0108 18.0652C16.1197 18.168 16.1852 18.3085 16.194 18.458V18.614C16.194 18.6909 16.1788 18.7672 16.1494 18.8382C16.1199 18.9093 16.0768 18.9739 16.0223 19.0284C15.9679 19.0828 15.9033 19.1259 15.8322 19.1554C15.7611 19.1848 15.6849 19.2 15.608 19.2" fill="#19303F"/>
</g>
<mask id="mask10_7_31" style="mask-type:alpha" maskUnits="userSpaceOnUse" x="7" y="1" width="28" height="40">
<path d="M7 41H34.626V1H7V41Z" fill="white"/>
</mask>
<g mask="url(#mask10_7_31)">
<path d="M13.54 34.065C12.595 34.065 11.825 34.835 11.825 35.781C11.825 36.727 12.595 37.496 13.541 37.496C14.487 37.496 15.257 36.726 15.257 35.781C15.256 35.3262 15.0748 34.8904 14.7532 34.5688C14.4317 34.2472 13.9958 34.0661 13.541 34.065" fill="#78D6D1"/>
</g>
<mask id="mask11_7_31" style="mask-type:alpha" maskUnits="userSpaceOnUse" x="7" y="1" width="28" height="40">
<path d="M7 41H34.626V1H7V41Z" fill="white"/>
</mask>
<g mask="url(#mask11_7_31)">
<path d="M19.852 32.853L18.092 34.078C18.3197 34.3153 18.593 34.5041 18.8956 34.6331C19.1981 34.7621 19.5236 34.8285 19.8525 34.8285C20.1814 34.8285 20.5069 34.7621 20.8094 34.6331C21.1119 34.5041 21.3853 34.3153 21.613 34.078L19.853 32.853H19.852Z" fill="#304A56"/>
</g>
<mask id="mask12_7_31" style="mask-type:alpha" maskUnits="userSpaceOnUse" x="7" y="1" width="28" height="40">
<path d="M7 41H34.626V1H7V41Z" fill="white"/>
</mask>
<g mask="url(#mask12_7_31)">
<path d="M19.852 34.828C19.596 34.828 19.35 34.789 19.119 34.716L18.31 41H21.396L20.586 34.716C20.3488 34.7907 20.1016 34.8284 19.853 34.828M28.101 39.363H27.817C27.6886 39.3633 27.5637 39.3214 27.4615 39.2439C27.3592 39.1663 27.2853 39.0573 27.251 38.9336C27.2166 38.8099 27.2239 38.6784 27.2716 38.5592C27.3193 38.4401 27.4048 38.3399 27.515 38.274V36.595C27.5069 36.3438 27.4014 36.1056 27.2209 35.9307C27.0403 35.7559 26.7988 35.6581 26.5475 35.6581C26.2962 35.6581 26.0547 35.7559 25.8741 35.9307C25.6935 36.1056 25.5881 36.3438 25.58 36.595V38.275C25.6881 38.3419 25.7716 38.442 25.8181 38.5603C25.8645 38.6786 25.8713 38.8088 25.8375 38.9314C25.8037 39.0539 25.7312 39.1622 25.6306 39.24C25.5301 39.3178 25.4071 39.361 25.28 39.363H24.995C24.8396 39.363 24.6905 39.3013 24.5806 39.1914C24.4707 39.0815 24.409 38.9324 24.409 38.777V36.595C24.426 36.039 24.6588 35.5115 25.0581 35.1243C25.4574 34.737 25.9918 34.5204 26.548 34.5204C27.1042 34.5204 27.6386 34.737 28.0379 35.1243C28.4372 35.5115 28.67 36.039 28.687 36.595V38.777C28.6867 38.9323 28.6249 39.0812 28.5151 39.1911C28.4052 39.3009 28.2563 39.3627 28.101 39.363" fill="#3D5868"/>
</g>
</g>
</svg>
