<svg width="36" height="36" viewBox="0 0 36 36" fill="none" xmlns="http://www.w3.org/2000/svg">
<path d="M13.7813 27.4922C10.8688 27.4922 8.50781 25.0608 8.50781 22.1485C8.50781 19.236 10.8688 16.875 13.7813 16.875H16.9453V12.6562H13.7813C8.53883 12.6562 4.28906 16.906 4.28906 22.1485C4.28906 27.3909 8.53883 31.711 13.7813 31.711H16.9453V27.4922H13.7813Z" fill="#26BFA6"/>
<path d="M20.1094 29.6015V31.711H25.3828V26.4375L23.2734 27.4922V29.6015H20.1094Z" fill="#474F54"/>
<path d="M31.711 27.4922V25.3828H23.2735V27.4922H25.3828H31.711Z" fill="#76E2F8"/>
<path d="M12.7265 25.3828H21.164V34.9453H12.7265V25.3828Z" fill="#E1EBF0"/>
<path d="M16.9453 25.3828H21.164V34.9453H16.9453V25.3828Z" fill="#CDE1E6"/>
<path d="M25.1531 13.8232L22.562 15.6383L19.9703 17.4538L23.6 22.6366L26.1913 20.8213L28.7827 19.006L25.1531 13.8232Z" fill="#57D9AD"/>
<path d="M25.153 13.8232L22.5619 15.6383L26.1913 20.8213L28.7826 19.006L25.153 13.8232Z" fill="#26BFA6"/>
<path d="M15.4745 0L12.8826 1.81533L10.2907 3.63065L13.9213 8.81346L16.5121 6.99848L19.1041 5.1828L15.4745 0Z" fill="#575F64"/>
<path d="M15.4745 0L12.8826 1.81533L16.5121 6.99848L19.1041 5.1828L15.4745 0Z" fill="#474F54"/>
<path d="M19.6232 2.24635L15.3022 5.27083L10.9828 8.29435L19.4522 20.3903L23.7715 17.3655L28.0916 14.3402L19.6232 2.24635Z" fill="#E1EBF0"/>
<path d="M19.6231 2.24635L15.3022 5.27083L23.7715 17.3655L28.0915 14.3402L19.6231 2.24635Z" fill="#CDE1E6"/>
<path d="M6.39844 33.8906H29.6015V36H6.39844V33.8906Z" fill="#575F64"/>
<path d="M16.9453 33.8906H29.6015V36H16.9453V33.8906Z" fill="#474F54"/>
<path d="M14.836 18.9844C12.5092 18.9844 10.6172 17.0924 10.6172 14.7656C10.6172 12.4389 12.5092 10.5469 14.836 10.5469C17.1626 10.5469 19.0547 12.4389 19.0547 14.7656C19.0547 17.0924 17.1626 18.9844 14.836 18.9844Z" fill="#575F64"/>
<path d="M14.836 12.6562C13.6731 12.6562 12.7265 13.6028 12.7265 14.7656C12.7265 15.9285 13.6731 16.875 14.836 16.875C15.9988 16.875 16.9453 15.9285 16.9453 14.7656C16.9453 13.6028 15.9988 12.6562 14.836 12.6562Z" fill="#E1EBF0"/>
</svg>
